<svg width="32" height="31" viewBox="0 0 32 31" fill="none" xmlns="http://www.w3.org/2000/svg">
<path d="M24.6294 25.2613L19.3151 22.4469C19.1334 22.3506 18.9089 22.4427 18.8471 22.6387L16.3134 30.6695C16.2166 30.9764 15.7822 30.9764 15.6854 30.6695L13.1529 22.6388C13.0911 22.4427 12.8666 22.3507 12.6849 22.4469L7.37063 25.2613C7.09094 25.4094 6.78376 25.116 6.91882 24.8298L9.6812 18.9759C9.76723 18.7936 9.6707 18.5775 9.47753 18.5199L0.235159 15.7645C-0.0783849 15.671 -0.0783867 15.227 0.235156 15.1335L9.47753 12.378C9.6707 12.3204 9.76723 12.1043 9.6812 11.922L6.91882 6.06804C6.78376 5.78182 7.09094 5.48849 7.37063 5.63661L12.6849 8.45099C12.8666 8.54722 13.0911 8.45519 13.1529 8.25911L15.686 0.230163C15.7829 -0.0767211 16.2171 -0.0767212 16.314 0.230163L18.8471 8.25911C18.9089 8.45519 19.1334 8.54722 19.3151 8.45099L24.6294 5.63661C24.9091 5.48848 25.2162 5.78181 25.0812 6.06804L22.3188 11.922C22.2328 12.1043 22.3293 12.3204 22.5225 12.378L31.7648 15.1335C32.0784 15.227 32.0784 15.671 31.7648 15.7645L22.5225 18.5199C22.3293 18.5775 22.2328 18.7936 22.3188 18.9759L25.0812 24.8298C25.2162 25.116 24.9091 25.4094 24.6294 25.2613Z" fill="#FFBA65"/>
</svg>
