<svg width="715" height="152" viewBox="0 0 715 152" fill="none" xmlns="http://www.w3.org/2000/svg">
<path d="M120.189 123.809L94.2559 110.075C93.3692 109.605 92.2738 110.054 91.9719 111.011L79.6078 150.201C79.1353 151.699 77.0158 151.698 76.5435 150.201L64.185 111.012C63.8832 110.055 62.7877 109.605 61.9009 110.075L35.968 123.809C34.6031 124.532 33.1041 123.1 33.7632 121.704L47.2434 93.1369C47.6632 92.2473 47.1921 91.1928 46.2495 90.9117L1.14755 77.4655C-0.382511 77.0094 -0.38252 74.8425 1.14754 74.3863L46.2495 60.9397C47.1921 60.6587 47.6632 59.6041 47.2434 58.7146L33.7632 30.1478C33.1041 28.7511 34.6031 27.3197 35.968 28.0425L61.9012 41.7764C62.7878 42.246 63.8833 41.7969 64.1851 40.8401L76.5464 1.65955C77.0189 0.161985 79.1381 0.161985 79.6106 1.65955L91.9719 40.8401C92.2738 41.7969 93.3692 42.246 94.2559 41.7764L120.189 28.0425C121.554 27.3197 123.053 28.7511 122.394 30.1478L108.914 58.7146C108.494 59.6041 108.965 60.6587 109.908 60.9397L155.009 74.3863C156.54 74.8425 156.54 77.0094 155.009 77.4655L109.908 90.9117C108.965 91.1928 108.494 92.2473 108.914 93.1369L122.394 121.704C123.053 123.1 121.554 124.532 120.189 123.809Z" fill="url(#paint0_radial_408_66)"/>
<path d="M120.189 123.809L94.2559 110.075C93.3692 109.605 92.2738 110.054 91.9719 111.011L79.6078 150.201C79.1353 151.699 77.0158 151.698 76.5435 150.201L64.185 111.012C63.8832 110.055 62.7877 109.605 61.9009 110.075L35.968 123.809C34.6031 124.532 33.1041 123.1 33.7632 121.704L47.2434 93.1369C47.6632 92.2473 47.1921 91.1928 46.2495 90.9117L1.14755 77.4655C-0.382511 77.0094 -0.38252 74.8425 1.14754 74.3863L46.2495 60.9397C47.1921 60.6587 47.6632 59.6041 47.2434 58.7146L33.7632 30.1478C33.1041 28.7511 34.6031 27.3197 35.968 28.0425L61.9012 41.7764C62.7878 42.246 63.8833 41.7969 64.1851 40.8401L76.5464 1.65955C77.0189 0.161985 79.1381 0.161985 79.6106 1.65955L91.9719 40.8401C92.2738 41.7969 93.3692 42.246 94.2559 41.7764L120.189 28.0425C121.554 27.3197 123.053 28.7511 122.394 30.1478L108.914 58.7146C108.494 59.6041 108.965 60.6587 109.908 60.9397L155.009 74.3863C156.54 74.8425 156.54 77.0094 155.009 77.4655L109.908 90.9117C108.965 91.1928 108.494 92.2473 108.914 93.1369L122.394 121.704C123.053 123.1 121.554 124.532 120.189 123.809Z" fill="url(#paint1_radial_408_66)" fill-opacity="0.4"/>
<path d="M120.189 123.809L94.2559 110.075C93.3692 109.605 92.2738 110.054 91.9719 111.011L79.6078 150.201C79.1353 151.699 77.0158 151.698 76.5435 150.201L64.185 111.012C63.8832 110.055 62.7877 109.605 61.9009 110.075L35.968 123.809C34.6031 124.532 33.1041 123.1 33.7632 121.704L47.2434 93.1369C47.6632 92.2473 47.1921 91.1928 46.2495 90.9117L1.14755 77.4655C-0.382511 77.0094 -0.38252 74.8425 1.14754 74.3863L46.2495 60.9397C47.1921 60.6587 47.6632 59.6041 47.2434 58.7146L33.7632 30.1478C33.1041 28.7511 34.6031 27.3197 35.968 28.0425L61.9012 41.7764C62.7878 42.246 63.8833 41.7969 64.1851 40.8401L76.5464 1.65955C77.0189 0.161985 79.1381 0.161985 79.6106 1.65955L91.9719 40.8401C92.2738 41.7969 93.3692 42.246 94.2559 41.7764L120.189 28.0425C121.554 27.3197 123.053 28.7511 122.394 30.1478L108.914 58.7146C108.494 59.6041 108.965 60.6587 109.908 60.9397L155.009 74.3863C156.54 74.8425 156.54 77.0094 155.009 77.4655L109.908 90.9117C108.965 91.1928 108.494 92.2473 108.914 93.1369L122.394 121.704C123.053 123.1 121.554 124.532 120.189 123.809Z" fill="url(#paint2_radial_408_66)" fill-opacity="0.54"/>
<path d="M667.321 114.294C638.953 114.294 619.886 104.063 619.886 78.9499C619.886 53.7207 638.953 43.4895 667.321 43.4895C695.573 43.4895 714.757 53.7207 714.757 78.9499C714.757 104.063 695.573 114.294 667.321 114.294ZM667.321 97.6684C685.691 97.6684 694.76 93.1341 694.76 78.9499C694.76 64.6495 685.691 60.1152 667.321 60.1152C648.835 60.1152 639.767 64.6495 639.767 78.9499C639.767 93.1341 648.835 97.6684 667.321 97.6684Z" fill="#030712"/>
<path d="M582.137 43.4895C597.484 43.4895 611.436 50.0003 611.668 74.7644L611.436 113.131H591.554V82.7866C591.554 68.2537 589.113 60.6965 574.929 60.6965C564.465 60.6965 554.234 65.6959 548.188 71.1603C548.304 72.3229 548.304 73.4855 548.304 74.7644L548.072 113.131H528.191V82.7866C528.191 68.2537 525.749 60.6965 511.565 60.6965C500.055 60.6965 488.894 66.626 483.197 72.788V113.131H463.316V44.6521H483.197V55.8135C490.638 49.884 501.799 43.4895 518.773 43.4895C529.121 43.4895 538.887 46.5124 544.119 56.046C552.955 49.4189 565.163 43.4895 582.137 43.4895Z" fill="#030712"/>
<path d="M435.512 43.4895C443.65 43.4895 449.347 44.6521 453.997 45.8148V62.4405C447.487 60.8128 442.255 60.1152 436.442 60.1152C425.28 60.1152 412.491 62.673 400.4 72.0904V113.131H380.519V44.6521H400.4V56.2785C410.631 47.0937 422.723 43.4895 435.512 43.4895Z" fill="#030712"/>
<path d="M324.353 114.294C295.984 114.294 276.917 104.063 276.917 78.9499C276.917 53.7207 295.984 43.4895 324.353 43.4895C352.605 43.4895 371.788 53.7207 371.788 78.9499C371.788 104.063 352.605 114.294 324.353 114.294ZM324.353 97.6684C342.723 97.6684 351.791 93.1341 351.791 78.9499C351.791 64.6495 342.723 60.1152 324.353 60.1152C305.867 60.1152 296.798 64.6495 296.798 78.9499C296.798 93.1341 305.867 97.6684 324.353 97.6684Z" fill="#030712"/>
<path d="M273.938 49.3024H208.83V69.9973H266.962V87.6694H208.83V113.131H187.902V31.7466H273.938V49.3024Z" fill="#030712"/>
<defs>
<radialGradient id="paint0_radial_408_66" cx="0" cy="0" r="1" gradientUnits="userSpaceOnUse" gradientTransform="translate(135.141 103.246) rotate(-151.58) scale(122.637 127.237)">
<stop stop-color="#FF891D"/>
<stop offset="0.36182" stop-color="#FFA944"/>
<stop offset="0.724798" stop-color="#FFCE78"/>
<stop offset="1" stop-color="#FFBA6A"/>
</radialGradient>
<radialGradient id="paint1_radial_18_516" cx="0" cy="0" r="1" gradientUnits="userSpaceOnUse" gradientTransform="translate(91.7883 96.9411) rotate(127.266) scale(31.2333 32.4046)">
<stop stop-color="#F8A544" stop-opacity="0"/>
<stop offset="1" stop-color="#030712" stop-opacity="0.5"/>
</radialGradient>
<radialGradient id="paint2_radial_18_516" cx="0" cy="0" r="1" gradientUnits="userSpaceOnUse" gradientTransform="translate(69.6515 101.467) rotate(39.0585) scale(104.362 108.276)">
<stop offset="0.0188787" stop-color="#FDCE53" stop-opacity="0"/>
<stop offset="0.316869" stop-color="#F7BE56" stop-opacity="0.0913036"/>
<stop offset="0.761084" stop-color="#D46803" stop-opacity="0.5"/>
</radialGradient>
</defs>
</svg>