<svg width="715" height="202" viewBox="0 0 715 202" fill="none" xmlns="http://www.w3.org/2000/svg">
<path d="M120.189 173.658L94.2559 159.924C93.3692 159.454 92.2738 159.903 91.9719 160.86L79.6078 200.05C79.1353 201.547 77.0158 201.547 76.5435 200.05L64.185 160.861C63.8832 159.904 62.7877 159.454 61.9009 159.924L35.968 173.658C34.6031 174.381 33.1041 172.949 33.7632 171.552L47.2434 142.986C47.6632 142.096 47.1921 141.042 46.2495 140.761L1.14755 127.314C-0.382511 126.858 -0.38252 124.691 1.14754 124.235L46.2495 110.789C47.1921 110.508 47.6632 109.453 47.2434 108.563L33.7632 79.9967C33.1041 78.6 34.6031 77.1686 35.968 77.8914L61.9012 91.6253C62.7878 92.0949 63.8833 91.6458 64.1851 90.6889L76.5464 51.5084C77.0189 50.0109 79.1381 50.0109 79.6106 51.5084L91.9719 90.6889C92.2738 91.6458 93.3692 92.0949 94.2559 91.6253L120.189 77.8914C121.554 77.1686 123.053 78.6 122.394 79.9967L108.914 108.563C108.494 109.453 108.965 110.508 109.908 110.789L155.009 124.235C156.54 124.691 156.54 126.858 155.009 127.314L109.908 140.761C108.965 141.042 108.494 142.096 108.914 142.986L122.394 171.552C123.053 172.949 121.554 174.381 120.189 173.658Z" fill="url(#paint0_radial_18_516)"/>
<path d="M120.189 173.658L94.2559 159.924C93.3692 159.454 92.2738 159.903 91.9719 160.86L79.6078 200.05C79.1353 201.547 77.0158 201.547 76.5435 200.05L64.185 160.861C63.8832 159.904 62.7877 159.454 61.9009 159.924L35.968 173.658C34.6031 174.381 33.1041 172.949 33.7632 171.552L47.2434 142.986C47.6632 142.096 47.1921 141.042 46.2495 140.761L1.14755 127.314C-0.382511 126.858 -0.38252 124.691 1.14754 124.235L46.2495 110.789C47.1921 110.508 47.6632 109.453 47.2434 108.563L33.7632 79.9967C33.1041 78.6 34.6031 77.1686 35.968 77.8914L61.9012 91.6253C62.7878 92.0949 63.8833 91.6458 64.1851 90.6889L76.5464 51.5084C77.0189 50.0109 79.1381 50.0109 79.6106 51.5084L91.9719 90.6889C92.2738 91.6458 93.3692 92.0949 94.2559 91.6253L120.189 77.8914C121.554 77.1686 123.053 78.6 122.394 79.9967L108.914 108.563C108.494 109.453 108.965 110.508 109.908 110.789L155.009 124.235C156.54 124.691 156.54 126.858 155.009 127.314L109.908 140.761C108.965 141.042 108.494 142.096 108.914 142.986L122.394 171.552C123.053 172.949 121.554 174.381 120.189 173.658Z" fill="url(#paint1_radial_18_516)" fill-opacity="0.4"/>
<path d="M120.189 173.658L94.2559 159.924C93.3692 159.454 92.2738 159.903 91.9719 160.86L79.6078 200.05C79.1353 201.547 77.0158 201.547 76.5435 200.05L64.185 160.861C63.8832 159.904 62.7877 159.454 61.9009 159.924L35.968 173.658C34.6031 174.381 33.1041 172.949 33.7632 171.552L47.2434 142.986C47.6632 142.096 47.1921 141.042 46.2495 140.761L1.14755 127.314C-0.382511 126.858 -0.38252 124.691 1.14754 124.235L46.2495 110.789C47.1921 110.508 47.6632 109.453 47.2434 108.563L33.7632 79.9967C33.1041 78.6 34.6031 77.1686 35.968 77.8914L61.9012 91.6253C62.7878 92.0949 63.8833 91.6458 64.1851 90.6889L76.5464 51.5084C77.0189 50.0109 79.1381 50.0109 79.6106 51.5084L91.9719 90.6889C92.2738 91.6458 93.3692 92.0949 94.2559 91.6253L120.189 77.8914C121.554 77.1686 123.053 78.6 122.394 79.9967L108.914 108.563C108.494 109.453 108.965 110.508 109.908 110.789L155.009 124.235C156.54 124.691 156.54 126.858 155.009 127.314L109.908 140.761C108.965 141.042 108.494 142.096 108.914 142.986L122.394 171.552C123.053 172.949 121.554 174.381 120.189 173.658Z" fill="url(#paint2_radial_18_516)" fill-opacity="0.54"/>
<path d="M667.321 164.143C638.953 164.143 619.886 153.912 619.886 128.799C619.886 103.57 638.953 93.3384 667.321 93.3384C695.573 93.3384 714.757 103.57 714.757 128.799C714.757 153.912 695.573 164.143 667.321 164.143ZM667.321 147.517C685.691 147.517 694.76 142.983 694.76 128.799C694.76 114.498 685.691 109.964 667.321 109.964C648.835 109.964 639.767 114.498 639.767 128.799C639.767 142.983 648.835 147.517 667.321 147.517Z" fill="#030712"/>
<path d="M582.137 93.3384C597.484 93.3384 611.436 99.8491 611.668 124.613L611.436 162.98H591.554V132.636C591.554 118.103 589.113 110.545 574.929 110.545C564.465 110.545 554.234 115.545 548.188 121.009C548.304 122.172 548.304 123.334 548.304 124.613L548.072 162.98H528.191V132.636C528.191 118.103 525.749 110.545 511.565 110.545C500.055 110.545 488.894 116.475 483.197 122.637V162.98H463.316V94.501H483.197V105.662C490.638 99.7329 501.799 93.3384 518.773 93.3384C529.121 93.3384 538.887 96.3612 544.119 105.895C552.955 99.2678 565.163 93.3384 582.137 93.3384Z" fill="#030712"/>
<path d="M435.512 93.3384C443.65 93.3384 449.347 94.501 453.997 95.6636V112.289C447.487 110.662 442.255 109.964 436.442 109.964C425.28 109.964 412.491 112.522 400.4 121.939V162.98H380.519V94.501H400.4V106.127C410.631 96.9426 422.723 93.3384 435.512 93.3384Z" fill="#030712"/>
<path d="M324.353 164.143C295.984 164.143 276.917 153.912 276.917 128.799C276.917 103.57 295.984 93.3384 324.353 93.3384C352.605 93.3384 371.788 103.57 371.788 128.799C371.788 153.912 352.605 164.143 324.353 164.143ZM324.353 147.517C342.723 147.517 351.791 142.983 351.791 128.799C351.791 114.498 342.723 109.964 324.353 109.964C305.867 109.964 296.798 114.498 296.798 128.799C296.798 142.983 305.867 147.517 324.353 147.517Z" fill="#030712"/>
<path d="M273.938 99.1513H208.83V119.846H266.962V137.518H208.83V162.98H187.902V81.5955H273.938V99.1513Z" fill="#030712"/>
<path d="M1.59801 1.30342H4.26136L8.89205 12.6102H9.0625L13.6932 1.30342H16.3565V15.8489H14.2685V5.32331H14.1335L9.84375 15.8276H8.1108L3.82102 5.31621H3.68608V15.8489H1.59801V1.30342ZM22.5515 16.0904C21.8602 16.0904 21.2352 15.9625 20.6765 15.7068C20.1178 15.4464 19.6751 15.07 19.3484 14.5776C19.0264 14.0851 18.8654 13.4815 18.8654 12.7665C18.8654 12.151 18.9838 11.6443 19.2205 11.2466C19.4573 10.8489 19.7769 10.534 20.1793 10.302C20.5818 10.07 21.0316 9.89481 21.5288 9.77643C22.0259 9.65806 22.5326 9.5681 23.0487 9.50655C23.7021 9.43079 24.2324 9.36924 24.6396 9.32189C25.0468 9.2698 25.3427 9.18695 25.5273 9.07331C25.712 8.95967 25.8043 8.77501 25.8043 8.51933V8.46962C25.8043 7.84935 25.6291 7.36876 25.2788 7.02785C24.9331 6.68694 24.417 6.51649 23.7305 6.51649C23.0155 6.51649 22.4521 6.67511 22.0401 6.99234C21.6329 7.30484 21.3512 7.65285 21.195 8.03638L19.1992 7.58183C19.436 6.91895 19.7816 6.38391 20.2362 5.97672C20.6954 5.56479 21.2234 5.26649 21.82 5.08183C22.4165 4.89244 23.0439 4.79774 23.7021 4.79774C24.1377 4.79774 24.5993 4.84982 25.087 4.95399C25.5794 5.05342 26.0387 5.23808 26.4648 5.50797C26.8957 5.77785 27.2485 6.16374 27.5231 6.66564C27.7977 7.1628 27.935 7.8091 27.935 8.60456V15.8489H25.8612V14.3574H25.7759C25.6386 14.632 25.4326 14.9019 25.158 15.1671C24.8834 15.4322 24.5307 15.6524 24.0998 15.8276C23.6689 16.0028 23.1528 16.0904 22.5515 16.0904ZM23.0131 14.3858C23.6003 14.3858 24.1022 14.2698 24.5188 14.0378C24.9402 13.8058 25.2598 13.5028 25.4776 13.1287C25.7002 12.7499 25.8114 12.3451 25.8114 11.9142V10.508C25.7357 10.5837 25.5889 10.6547 25.3711 10.721C25.158 10.7826 24.9142 10.837 24.6396 10.8844C24.3649 10.927 24.0974 10.9672 23.837 11.0051C23.5766 11.0383 23.3588 11.0667 23.1836 11.0904C22.7717 11.1424 22.3952 11.23 22.0543 11.3531C21.7182 11.4762 21.4483 11.6538 21.2447 11.8858C21.0458 12.1131 20.9464 12.4161 20.9464 12.7949C20.9464 13.3205 21.1405 13.7182 21.5288 13.9881C21.917 14.2532 22.4118 14.3858 23.0131 14.3858ZM30.7635 15.8489V4.93979H32.8871V15.8489H30.7635ZM31.8359 3.25655C31.4666 3.25655 31.1494 3.13344 30.8842 2.88723C30.6238 2.63628 30.4936 2.33799 30.4936 1.99234C30.4936 1.64196 30.6238 1.34367 30.8842 1.09746C31.1494 0.846509 31.4666 0.721036 31.8359 0.721036C32.2053 0.721036 32.5201 0.846509 32.7805 1.09746C33.0457 1.34367 33.1783 1.64196 33.1783 1.99234C33.1783 2.33799 33.0457 2.63628 32.7805 2.88723C32.5201 3.13344 32.2053 3.25655 31.8359 3.25655ZM37.8675 9.3716V15.8489H35.744V4.93979H37.7823V6.71535H37.9173C38.1682 6.1377 38.5612 5.67369 39.0962 5.32331C39.636 4.97293 40.3155 4.79774 41.1346 4.79774C41.878 4.79774 42.529 4.95399 43.0877 5.26649C43.6464 5.57426 44.0797 6.03354 44.3874 6.64433C44.6952 7.25513 44.8491 8.01034 44.8491 8.90996V15.8489H42.7255V9.16564C42.7255 8.37492 42.5195 7.75702 42.1076 7.31195C41.6957 6.86213 41.1299 6.63723 40.4102 6.63723C39.9177 6.63723 39.4798 6.74376 39.0962 6.95683C38.7174 7.1699 38.4168 7.4824 38.1942 7.89433C37.9764 8.30153 37.8675 8.79395 37.8675 9.3716ZM55.1136 1.30342V15.8489H52.9901V1.30342H55.1136ZM62.5657 16.069C61.543 16.069 60.6504 15.8347 59.8881 15.3659C59.1258 14.8972 58.534 14.2414 58.1126 13.3986C57.6912 12.5558 57.4805 11.5709 57.4805 10.444C57.4805 9.31242 57.6912 8.32283 58.1126 7.4753C58.534 6.62776 59.1258 5.96962 59.8881 5.50087C60.6504 5.03212 61.543 4.79774 62.5657 4.79774C63.5884 4.79774 64.4809 5.03212 65.2433 5.50087C66.0056 5.96962 66.5974 6.62776 67.0188 7.4753C67.4402 8.32283 67.6509 9.31242 67.6509 10.444C67.6509 11.5709 67.4402 12.5558 67.0188 13.3986C66.5974 14.2414 66.0056 14.8972 65.2433 15.3659C64.4809 15.8347 63.5884 16.069 62.5657 16.069ZM62.5728 14.2864C63.2357 14.2864 63.7849 14.1112 64.2205 13.7608C64.6561 13.4104 64.9781 12.944 65.1864 12.3617C65.3995 11.7793 65.506 11.1377 65.506 10.4369C65.506 9.74092 65.3995 9.10172 65.1864 8.51933C64.9781 7.93221 64.6561 7.46109 64.2205 7.10598C63.7849 6.75087 63.2357 6.57331 62.5728 6.57331C61.9052 6.57331 61.3512 6.75087 60.9109 7.10598C60.4753 7.46109 60.1509 7.93221 59.9379 8.51933C59.7295 9.10172 59.6254 9.74092 59.6254 10.4369C59.6254 11.1377 59.7295 11.7793 59.9379 12.3617C60.1509 12.944 60.4753 13.4104 60.9109 13.7608C61.3512 14.1112 61.9052 14.2864 62.5728 14.2864ZM74.5952 20.1671C73.7287 20.1671 72.983 20.0534 72.358 19.8261C71.7377 19.5989 71.2311 19.2982 70.8381 18.9242C70.4451 18.5501 70.1515 18.1405 69.9574 17.6955L71.7827 16.9426C71.9105 17.151 72.081 17.3711 72.294 17.6031C72.5118 17.8399 72.8054 18.0411 73.1747 18.2068C73.5488 18.3726 74.0294 18.4554 74.6165 18.4554C75.4214 18.4554 76.0866 18.2589 76.6122 17.8659C77.1378 17.4777 77.4006 16.8574 77.4006 16.0051V13.8602H77.2656C77.1378 14.0922 76.9531 14.3503 76.7116 14.6344C76.4749 14.9185 76.1482 15.1647 75.7315 15.373C75.3149 15.5814 74.7727 15.6855 74.1051 15.6855C73.2434 15.6855 72.4669 15.4843 71.7756 15.0818C71.089 14.6746 70.5445 14.0757 70.142 13.285C69.7443 12.4895 69.5455 11.5118 69.5455 10.3517C69.5455 9.19168 69.742 8.19736 70.1349 7.36876C70.5327 6.54016 71.0772 5.90569 71.7685 5.46535C72.4598 5.02028 73.2434 4.79774 74.1193 4.79774C74.7964 4.79774 75.3433 4.91138 75.7599 5.13865C76.1766 5.36119 76.5009 5.6216 76.733 5.9199C76.9697 6.21819 77.152 6.48098 77.2798 6.70825H77.4361V4.93979H79.517V16.0904C79.517 17.0279 79.2992 17.7973 78.8636 18.3986C78.428 18.9999 77.8385 19.445 77.0952 19.7338C76.3565 20.0226 75.5232 20.1671 74.5952 20.1671ZM74.5739 13.9242C75.1847 13.9242 75.7008 13.7821 76.1222 13.498C76.5483 13.2092 76.8703 12.7973 77.0881 12.2622C77.3106 11.7225 77.4219 11.0761 77.4219 10.3233C77.4219 9.58941 77.313 8.9431 77.0952 8.38439C76.8774 7.82568 76.5578 7.39007 76.1364 7.07757C75.715 6.76034 75.1941 6.60172 74.5739 6.60172C73.9347 6.60172 73.402 6.76744 72.9759 7.09888C72.5497 7.42558 72.2277 7.87066 72.0099 8.4341C71.7969 8.99755 71.6903 9.62729 71.6903 10.3233C71.6903 11.0383 71.7992 11.6656 72.017 12.2054C72.2348 12.7452 72.5568 13.1666 72.983 13.4696C73.4138 13.7726 73.9441 13.9242 74.5739 13.9242ZM86.9602 16.069C85.9375 16.069 85.045 15.8347 84.2827 15.3659C83.5204 14.8972 82.9285 14.2414 82.5071 13.3986C82.0857 12.5558 81.875 11.5709 81.875 10.444C81.875 9.31242 82.0857 8.32283 82.5071 7.4753C82.9285 6.62776 83.5204 5.96962 84.2827 5.50087C85.045 5.03212 85.9375 4.79774 86.9602 4.79774C87.983 4.79774 88.8755 5.03212 89.6378 5.50087C90.4001 5.96962 90.992 6.62776 91.4134 7.4753C91.8348 8.32283 92.0455 9.31242 92.0455 10.444C92.0455 11.5709 91.8348 12.5558 91.4134 13.3986C90.992 14.2414 90.4001 14.8972 89.6378 15.3659C88.8755 15.8347 87.983 16.069 86.9602 16.069ZM86.9673 14.2864C87.6302 14.2864 88.1795 14.1112 88.6151 13.7608C89.0507 13.4104 89.3726 12.944 89.581 12.3617C89.794 11.7793 89.9006 11.1377 89.9006 10.4369C89.9006 9.74092 89.794 9.10172 89.581 8.51933C89.3726 7.93221 89.0507 7.46109 88.6151 7.10598C88.1795 6.75087 87.6302 6.57331 86.9673 6.57331C86.2997 6.57331 85.7457 6.75087 85.3054 7.10598C84.8698 7.46109 84.5455 7.93221 84.3324 8.51933C84.1241 9.10172 84.0199 9.74092 84.0199 10.4369C84.0199 11.1377 84.1241 11.7793 84.3324 12.3617C84.5455 12.944 84.8698 13.4104 85.3054 13.7608C85.7457 14.1112 86.2997 14.2864 86.9673 14.2864Z" fill="#9E9E9E"/>
<defs>
<radialGradient id="paint0_radial_18_516" cx="0" cy="0" r="1" gradientUnits="userSpaceOnUse" gradientTransform="translate(135.141 153.095) rotate(-151.58) scale(122.637 127.237)">
<stop stop-color="#FF891D"/>
<stop offset="0.36182" stop-color="#FFA944"/>
<stop offset="0.724798" stop-color="#FFCE78"/>
<stop offset="1" stop-color="#FFBA6A"/>
</radialGradient>
<radialGradient id="paint1_radial_18_516" cx="0" cy="0" r="1" gradientUnits="userSpaceOnUse" gradientTransform="translate(91.7883 96.9411) rotate(127.266) scale(31.2333 32.4046)">
<stop stop-color="#F8A544" stop-opacity="0"/>
<stop offset="1" stop-color="white" stop-opacity="0.5"/>
</radialGradient>
<radialGradient id="paint2_radial_18_516" cx="0" cy="0" r="1" gradientUnits="userSpaceOnUse" gradientTransform="translate(69.6515 101.467) rotate(39.0585) scale(104.362 108.276)">
<stop offset="0.0188787" stop-color="#FDCE53" stop-opacity="0"/>
<stop offset="0.316869" stop-color="#F7BE56" stop-opacity="0.0913036"/>
<stop offset="0.761084" stop-color="#D46803" stop-opacity="0.5"/>
</radialGradient>
</defs>
</svg>
